# xmcd CD database file
#
# Track frame offsets:
#	150
#	20700
#	47925
#	71925
#	90000
#	109050
#	125700
#	140962
#	160012
#	175462
#	192787
#	226607
#
# Disc length: 3581 seconds
#
# Revision: 0
# Processed by: cddbd v1.5.1PL0 Copyright (c) Steve Scherf et al.
# Submitted via: CDex 1.51
#
DISCID=a60dfb0c
DTITLE=new old stock - the not yet famous blues band
DYEAR=2003
DGENRE=Blues
TTITLE0=under the moonlight
TTITLE1=Your revolution
TTITLE2=Tarantino
TTITLE3=Homem com coração
TTITLE4=Take me away
TTITLE5=It´s all over
TTITLE6=Respostas são promessas
TTITLE7=you keep doing wrong
TTITLE8=pretty eyes
TTITLE9=stay on line
TTITLE10=Seagull
TTITLE11=multimidea track - under the moonlight
EXTD=YEAR: 2003
EXTT0=
EXTT1=
EXTT2=
EXTT3=
EXTT4=
EXTT5=
EXTT6=
EXTT7=
EXTT8=
EXTT9=
EXTT10=
EXTT11=
PLAYORDER=
